<svg xmlns="http://www.w3.org/2000/svg" xmlns:xlink="http://www.w3.org/1999/xlink" width="413.489" height="263.464" viewBox="0 0 413.489 263.464">
  <defs>
    <filter id="Rectangle_27" x="29.552" y="31.672" width="357.648" height="30.152" filterUnits="userSpaceOnUse">
      <feOffset dy="3" input="SourceAlpha"/>
      <feGaussianBlur stdDeviation="3" result="blur"/>
      <feFlood flood-opacity="0.161"/>
      <feComposite operator="in" in2="blur"/>
      <feComposite in="SourceGraphic"/>
    </filter>
    <filter id="Rectangle_25" x="0" y="0" width="413.489" height="263.464" filterUnits="userSpaceOnUse">
      <feOffset dy="3" input="SourceAlpha"/>
      <feGaussianBlur stdDeviation="10" result="blur-2"/>
      <feFlood flood-opacity="0.161"/>
      <feComposite operator="in" in2="blur-2"/>
      <feComposite in="SourceGraphic"/>
    </filter>
  </defs>
  <g id="Group_81" data-name="Group 81" transform="translate(-1083.533 -204.416)">
    <g transform="matrix(1, 0, 0, 1, 1083.53, 204.42)" filter="url(#Rectangle_27)">
      <rect id="Rectangle_27-2" data-name="Rectangle 27" width="339.648" height="12.152" transform="translate(38.55 37.67)" fill="#fff"/>
    </g>
    <g transform="matrix(1, 0, 0, 1, 1083.53, 204.42)" filter="url(#Rectangle_25)">
      <rect id="Rectangle_25-2" data-name="Rectangle 25" width="353.489" height="203.464" transform="translate(30 27)" fill="#555454"/>
    </g>
    <path id="Path_36" data-name="Path 36" d="M0,0H339.761V181.892H0Z" transform="translate(1121.848 238.28)" fill="#fff"/>
    <rect id="Rectangle_28" data-name="Rectangle 28" width="400" height="17" rx="7" transform="translate(1090 442)" fill="#555454"/>
    <path id="Path_38" data-name="Path 38" d="M-4.77,0l354.41.117L366.1,7.246l-387.78-.194Z" transform="translate(1117.703 434.63)" fill="#736f6f"/>
    <g id="Group_20" data-name="Group 20" transform="translate(1133.468 241.156)">
      <ellipse id="Ellipse_17" data-name="Ellipse 17" cx="4.869" cy="4.504" rx="4.869" ry="4.504" transform="translate(0)" fill="#54eb4e"/>
      <ellipse id="Ellipse_18" data-name="Ellipse 18" cx="4.869" cy="4.504" rx="4.869" ry="4.504" transform="translate(15.049)" fill="#ffcb2b"/>
      <ellipse id="Ellipse_19" data-name="Ellipse 19" cx="4.869" cy="4.504" rx="4.869" ry="4.504" transform="translate(30.098)" fill="#f50c0c"/>
    </g>
    <text id="_" data-name="&lt;/&gt;" transform="translate(1221 371)" fill="#1195e3" font-size="95" font-family="Impact" letter-spacing="0.01em"><tspan x="0" y="0">&lt;/&gt;</tspan></text>
    <path id="Rectangle_29" data-name="Rectangle 29" d="M0,0H65a0,0,0,0,1,0,0V0a5,5,0,0,1-5,5H5A5,5,0,0,1,0,0V0A0,0,0,0,1,0,0Z" transform="translate(1259 442)" fill="#fff"/>
  </g>
</svg>
